<svg width="56" height="32" viewBox="0 0 56 32" fill="none" xmlns="http://www.w3.org/2000/svg">
<rect width="56" height="32" rx="16" fill="#030F29"/>
<path d="M16.1713 21V10.8182H22.5549V12.1406H17.7076V15.2429H22.2218V16.5604H17.7076V19.6776H22.6145V21H16.1713ZM27.3462 21.1491C26.7298 21.1491 26.1796 20.9917 25.6957 20.6768C25.2151 20.3587 24.8372 19.9062 24.5621 19.3196C24.2904 18.7296 24.1545 18.022 24.1545 17.1967C24.1545 16.3714 24.292 15.6655 24.5671 15.0788C24.8455 14.4922 25.2267 14.0431 25.7106 13.7315C26.1945 13.42 26.743 13.2642 27.3562 13.2642C27.8301 13.2642 28.2113 13.3438 28.4996 13.5028C28.7913 13.6586 29.0167 13.8409 29.1758 14.0497C29.3382 14.2585 29.4641 14.4425 29.5536 14.6016H29.6431V10.8182H31.1296V21H29.6779V19.8118H29.5536C29.4641 19.9742 29.3349 20.1598 29.1658 20.3686C29.0001 20.5774 28.7714 20.7597 28.4798 20.9155C28.1881 21.0713 27.8103 21.1491 27.3462 21.1491ZM27.6744 19.8814C28.1019 19.8814 28.4632 19.7687 28.7582 19.5433C29.0565 19.3146 29.2818 18.9981 29.4343 18.5938C29.5901 18.1894 29.668 17.7187 29.668 17.1818C29.668 16.6515 29.5917 16.1875 29.4393 15.7898C29.2868 15.392 29.0631 15.0821 28.7681 14.8601C28.4731 14.638 28.1085 14.527 27.6744 14.527C27.2269 14.527 26.854 14.643 26.5558 14.875C26.2575 15.107 26.0321 15.4235 25.8796 15.8246C25.7305 16.2256 25.6559 16.678 25.6559 17.1818C25.6559 17.6922 25.7321 18.1513 25.8846 18.5589C26.0371 18.9666 26.2624 19.2898 26.5607 19.5284C26.8623 19.7637 27.2335 19.8814 27.6744 19.8814ZM33.2512 21V13.3636H34.7377V21H33.2512ZM34.002 12.1854C33.7434 12.1854 33.5214 12.0992 33.3358 11.9268C33.1535 11.7512 33.0623 11.5424 33.0623 11.3004C33.0623 11.0552 33.1535 10.8464 33.3358 10.674C33.5214 10.4983 33.7434 10.4105 34.002 10.4105C34.2605 10.4105 34.4809 10.4983 34.6632 10.674C34.8488 10.8464 34.9416 11.0552 34.9416 11.3004C34.9416 11.5424 34.8488 11.7512 34.6632 11.9268C34.4809 12.0992 34.2605 12.1854 34.002 12.1854ZM40.3022 13.3636V14.5568H36.131V13.3636H40.3022ZM37.2496 11.5341H38.7362V18.7578C38.7362 19.0462 38.7792 19.2633 38.8654 19.4091C38.9516 19.5516 39.0626 19.6494 39.1985 19.7024C39.3377 19.7521 39.4885 19.777 39.6509 19.777C39.7702 19.777 39.8746 19.7687 39.9641 19.7521C40.0536 19.7356 40.1232 19.7223 40.1729 19.7124L40.4414 20.9403C40.3552 20.9735 40.2326 21.0066 40.0735 21.0398C39.9144 21.0762 39.7156 21.0961 39.4769 21.0994C39.0858 21.1061 38.7212 21.0365 38.3832 20.8906C38.0451 20.7448 37.7717 20.5194 37.5629 20.2145C37.354 19.9096 37.2496 19.5268 37.2496 19.0661V11.5341Z" fill="white"/>
</svg>
