<svg width="48" height="48" viewBox="0 0 48 48" fill="none" xmlns="http://www.w3.org/2000/svg">
<rect width="48" height="48" rx="24" fill="#F3F5F8"/>
<path fill-rule="evenodd" clip-rule="evenodd" d="M17 23.25C16.5858 23.25 16.25 23.5858 16.25 24C16.25 24.4142 16.5858 24.75 17 24.75L23.25 24.75L23.25 31C23.25 31.4142 23.5858 31.75 24 31.75C24.4142 31.75 24.75 31.4142 24.75 31L24.75 24.75L31 24.75C31.4142 24.75 31.75 24.4142 31.75 24C31.75 23.5858 31.4142 23.25 31 23.25L24.75 23.25L24.75 17C24.75 16.5858 24.4142 16.25 24 16.25C23.5858 16.25 23.25 16.5858 23.25 17L23.25 23.25L17 23.25Z" fill="#2D3D64"/>
</svg>
