<svg width="44" height="44" viewBox="0 0 44 44" fill="none" xmlns="http://www.w3.org/2000/svg">
<rect x="0.5" y="0.5" width="43" height="43" rx="21.5" stroke="#DBDEE4"/>
<path d="M12.5299 24.394C12.3173 25.7471 13.268 26.6862 14.4321 27.1542C18.8948 28.9486 25.1052 28.9486 29.5679 27.1542C30.732 26.6862 31.6827 25.7471 31.4701 24.394C31.3394 23.5625 30.6932 22.8701 30.2144 22.194C29.5873 21.2975 29.525 20.3197 29.5249 19.2794C29.5249 15.2591 26.1559 12 22 12C17.8441 12 14.4751 15.2591 14.4751 19.2794C14.475 20.3197 14.4127 21.2975 13.7856 22.194C13.3068 22.8701 12.6606 23.5625 12.5299 24.394Z" stroke="#606C87" stroke-width="1.5" stroke-linecap="round" stroke-linejoin="round"/>
<path d="M19 31C19.7961 31.6219 20.8475 32 22 32C23.1525 32 24.2039 31.6219 25 31" fill="#606C87"/>
<path d="M19 31C19.7961 31.6219 20.8475 32 22 32C23.1525 32 24.2039 31.6219 25 31" stroke="#606C87" stroke-width="1.5" stroke-linecap="round" stroke-linejoin="round"/>
<circle cx="28" cy="15" r="5" fill="#EF7067" stroke="white" stroke-width="2"/>
</svg>
