<svg width="40" height="40" viewBox="0 0 40 40" fill="none" xmlns="http://www.w3.org/2000/svg">
<rect width="40" height="40" rx="20" fill="#F3F5F8"/>
<path fill-rule="evenodd" clip-rule="evenodd" d="M24.1663 11.6667H15.833C15.3728 11.6667 14.9997 12.0398 14.9997 12.5V27.5C14.9997 27.9602 15.3728 28.3333 15.833 28.3333H24.1663C24.6266 28.3333 24.9997 27.9602 24.9997 27.5V12.5C24.9997 12.0398 24.6266 11.6667 24.1663 11.6667ZM15.833 10C14.4523 10 13.333 11.1193 13.333 12.5V27.5C13.333 28.8807 14.4523 30 15.833 30H24.1663C25.5471 30 26.6663 28.8807 26.6663 27.5V12.5C26.6663 11.1193 25.5471 10 24.1663 10H15.833Z" fill="#030F29"/>
<path d="M20.8337 25.8333C20.8337 26.2936 20.4606 26.6667 20.0003 26.6667C19.5401 26.6667 19.167 26.2936 19.167 25.8333C19.167 25.3731 19.5401 25 20.0003 25C20.4606 25 20.8337 25.3731 20.8337 25.8333Z" fill="#030F29"/>
</svg>
