<svg width="44" height="44" viewBox="0 0 44 44" fill="none" xmlns="http://www.w3.org/2000/svg">
<rect width="44" height="44" rx="22" fill="#F3F5F8"/>
<path d="M15.1801 25.2964C13.9225 26.0335 10.6252 27.5386 12.6335 29.422C13.6145 30.342 14.7071 31 16.0808 31H23.9192C25.2929 31 26.3855 30.342 27.3665 29.422C29.3748 27.5386 26.0775 26.0335 24.8199 25.2964C21.8709 23.5679 18.1291 23.5679 15.1801 25.2964Z" stroke="#2D3D64" stroke-width="1.5" stroke-linecap="round" stroke-linejoin="round"/>
<path d="M24 17C24 19.2091 22.2091 21 20 21C17.7909 21 16 19.2091 16 17C16 14.7909 17.7909 13 20 13C22.2091 13 24 14.7909 24 17Z" stroke="#2D3D64" stroke-width="1.5"/>
<path d="M32 14.5L29.5 17M29.5 17L27 19.5M29.5 17L32 19.5M29.5 17L27 14.5" stroke="#2D3D64" stroke-width="1.5" stroke-linecap="round" stroke-linejoin="round"/>
</svg>
