<svg width="84" height="84" viewBox="0 0 84 84" fill="none" xmlns="http://www.w3.org/2000/svg">
<path d="M44.4118 79.7028C64.6379 79.7028 81.0345 63.4554 81.0345 43.4131C81.0345 23.3708 64.6379 7.12329 44.4118 7.12329C24.1856 7.12329 7.78906 23.3708 7.78906 43.4131C7.78906 63.4554 24.1856 79.7028 44.4118 79.7028Z" fill="#FBFBFE"/>
<path d="M77.8542 47.6937C81.082 27.8088 67.5787 9.07222 47.6937 5.84443C27.8088 2.61665 9.0722 16.1199 5.84442 36.0049C2.61664 55.8898 16.1199 74.6264 36.0049 77.8542C55.8898 81.082 74.6264 67.5786 77.8542 47.6937Z" fill="#E9ECFF"/>
<path opacity="0.8" d="M71.046 42.0814C71.046 47.8102 69.3277 53.4103 66.1084 58.1737C62.8891 62.937 58.3133 66.6495 52.9598 68.8418C47.6062 71.0341 41.7154 71.6077 36.0321 70.4901C30.3488 69.3725 25.1284 66.6138 21.031 62.5629C16.9335 58.5121 14.1432 53.351 13.0127 47.7323C11.8822 42.1136 12.4624 36.2896 14.6799 30.9969C16.8974 25.7042 20.6527 21.1805 25.4707 17.9977C30.2888 14.815 35.9533 13.1162 41.7479 13.1162C49.5183 13.1162 56.9703 16.1679 62.4648 21.5999C67.9593 27.032 71.046 34.3994 71.046 42.0814Z" fill="white"/>
<path d="M39.9608 44.8562C39.3997 44.2937 39.0845 43.5309 39.0845 42.7355C39.0845 41.94 39.3997 41.1772 39.9608 40.6147C40.5264 40.0608 41.2857 39.7507 42.0764 39.7507C42.8671 39.7507 43.6265 40.0608 44.1921 40.6147C44.4718 40.8928 44.694 41.2235 44.8459 41.5879C44.9978 41.9523 45.0764 42.3432 45.0773 42.7381C45.0781 43.133 45.0011 43.5242 44.8507 43.8892C44.7003 44.2542 44.4795 44.5858 44.2009 44.8651C43.9224 45.1443 43.5915 45.3657 43.2274 45.5164C42.8633 45.6672 42.473 45.7444 42.079 45.7435C41.685 45.7427 41.2951 45.6639 40.9316 45.5116C40.5681 45.3594 40.2382 45.1366 39.9608 44.8562Z" fill="#A8B3FE"/>
<path d="M41.5447 41.6066L59.0074 41.0825L59.0606 42.8645L43.2501 43.3362L41.5447 70.3807L39.7505 70.2759L41.5447 41.6066Z" fill="#A8B3FE"/>
</svg>
