<svg width="48" height="30" viewBox="0 0 48 30" fill="none" xmlns="http://www.w3.org/2000/svg">
<path d="M7.26922 5.00153C7.68153 4.6826 8.27432 4.7583 8.59324 5.17061C13.1419 11.0511 13.1289 18.744 8.59446 24.632C8.27641 25.045 7.68378 25.122 7.27079 24.8039C6.85781 24.4859 6.78084 23.8932 7.09889 23.4802C11.1125 18.2686 11.1207 11.5234 7.10013 6.32556C6.7812 5.91324 6.85691 5.32046 7.26922 5.00153Z" fill="white"/>
<path d="M3.50225 7.4362C3.91429 7.11692 4.50714 7.19212 4.82642 7.60416C8.23847 12.0076 8.2246 17.7872 4.8281 22.1969C4.51002 22.6098 3.91739 22.6867 3.50442 22.3687C3.09146 22.0506 3.01454 21.458 3.33262 21.045C6.20889 17.3107 6.21629 12.4797 3.33429 8.76037C3.01501 8.34833 3.09021 7.75548 3.50225 7.4362Z" fill="white"/>
<path d="M1.69184 10.9561C1.37391 10.543 0.78131 10.4658 0.368224 10.7838C-0.0448621 11.1017 -0.122005 11.6943 0.19592 12.1074C1.49894 13.8004 1.50682 15.9748 0.196354 17.6748C-0.121881 18.0877 -0.0451847 18.6803 0.367662 18.9986C0.780508 19.3168 1.37317 19.2401 1.6914 18.8273C3.52796 16.4447 3.51458 13.3244 1.69184 10.9561Z" fill="white"/>
</svg>
