<svg width="40" height="40" viewBox="0 0 40 40" fill="none" xmlns="http://www.w3.org/2000/svg">
<rect width="40" height="40" rx="20" fill="#F3F5F8"/>
<g clip-path="url(#clip0_928_43219)">
<path d="M20.8337 17.083C19.9132 17.083 19.167 17.6427 19.167 18.333C19.167 19.0233 19.9132 19.583 20.8337 19.583C21.7542 19.583 22.5003 20.1427 22.5003 20.833C22.5003 21.5233 21.7542 22.083 20.8337 22.083M20.8337 17.083C21.5593 17.083 22.1767 17.4308 22.4055 17.9163M20.8337 17.083V15.833M20.8337 22.083C20.108 22.083 19.4907 21.7352 19.2618 21.2497M20.8337 22.083V23.333" stroke="#030F29" stroke-width="1.5" stroke-linejoin="round"/>
<path d="M8.21401 19.583L12.0061 21.3126L12.0062 21.3126C12.0943 21.3529 12.1721 21.4147 12.2282 21.4949C12.2847 21.5755 12.3165 21.6709 12.3164 21.7707M8.21401 19.583L12.1164 23.958C12.1164 24.2895 12.2703 24.6075 12.5444 24.8419C12.8185 25.0763 13.1902 25.208 13.5778 25.208H23.8078C24.1954 25.208 24.5672 25.0763 24.8412 24.8419C25.1153 24.6075 25.2693 24.2895 25.2693 23.958V15.208C25.2693 14.8765 25.1153 14.5585 24.8412 14.3241C24.5672 14.0897 24.1954 13.958 23.8078 13.958H13.5778C13.1902 13.958 12.8185 14.0897 12.5444 14.3241C12.2703 14.5585 12.1164 14.8765 12.1164 15.208V17.3955M8.21401 19.583L12.0072 17.8528L12.0078 17.8525C12.0955 17.8121 12.1729 17.7503 12.2287 17.6703C12.2848 17.5899 12.3164 17.4948 12.3164 17.3954M8.21401 19.583L12.1164 17.3955M12.3164 21.7707L12.1164 21.7705H12.3164V21.7707ZM12.3164 21.7707V23.958C12.3164 24.2255 12.4404 24.4897 12.6744 24.6899C12.9094 24.8909 13.234 25.008 13.5778 25.008H23.8078C24.1516 25.008 24.4762 24.8909 24.7112 24.6899C24.9453 24.4897 25.0693 24.2255 25.0693 23.958V15.208C25.0693 14.9405 24.9453 14.6763 24.7112 14.4761C24.4762 14.2751 24.1516 14.158 23.8078 14.158H13.5778C13.234 14.158 12.9094 14.2751 12.6744 14.4761C12.4404 14.6763 12.3164 14.9405 12.3164 15.208V17.3954M12.3164 17.3954L12.1164 17.3955M12.3164 17.3954V17.3955H12.1164M23.808 13.133H23.8078L13.5778 13.133L13.5776 13.133C12.9527 13.1335 12.3483 13.3459 11.8984 13.7307C11.4474 14.1164 11.1863 14.6467 11.1857 15.2078V15.208V17.0794L7.30234 18.8507L7.30195 18.8509C7.15593 18.9179 7.02973 19.0194 6.93982 19.1479C6.84963 19.2768 6.8 19.4274 6.8 19.5835C6.8 19.7395 6.84963 19.8901 6.93982 20.0191C7.02973 20.1476 7.15593 20.2491 7.30195 20.316L7.30238 20.3162L11.1857 22.0866L11.1857 23.958L11.1857 23.9582C11.1863 24.5193 11.4474 25.0496 11.8984 25.4353C12.3483 25.8202 12.9527 26.0325 13.5776 26.033H13.5778H23.8078H23.808C24.433 26.0325 25.0373 25.8202 25.4873 25.4353C25.9382 25.0496 26.1993 24.5193 26.2 23.9582V23.958V15.208V15.2078C26.1993 14.6467 25.9382 14.1164 25.4873 13.7307C25.0373 13.3459 24.433 13.1335 23.808 13.133Z" fill="#030F29" stroke="#030F29" stroke-width="0.4"/>
</g>
<defs>
<clipPath id="clip0_928_43219">
<rect width="20" height="20" fill="white" transform="translate(10 10)"/>
</clipPath>
</defs>
</svg>
