<svg width="46" height="46" viewBox="0 0 46 46" fill="none" xmlns="http://www.w3.org/2000/svg">
<path d="M30.5 16.5L29.8803 26.5251C29.7219 29.0864 29.6428 30.3671 29.0008 31.2879C28.6833 31.7431 28.2747 32.1273 27.8007 32.416C26.8421 33 25.559 33 22.9927 33C20.4231 33 19.1383 33 18.179 32.4149C17.7048 32.1257 17.296 31.7408 16.9787 31.2848C16.3369 30.3626 16.2594 29.0801 16.1046 26.5152L15.5 16.5" fill="white"/>
<path d="M30.5 16.5L29.8803 26.5251C29.7219 29.0864 29.6428 30.3671 29.0008 31.2879C28.6833 31.7431 28.2747 32.1273 27.8007 32.416C26.8421 33 25.559 33 22.9927 33C20.4231 33 19.1383 33 18.179 32.4149C17.7048 32.1257 17.296 31.7408 16.9787 31.2848C16.3369 30.3626 16.2594 29.0801 16.1046 26.5152L15.5 16.5" stroke="white" stroke-width="1.5" stroke-linecap="round"/>
<path d="M32 16.5H14" stroke="white" stroke-width="1.5" stroke-linecap="round"/>
<path d="M20 22.7349H26" stroke="#ADB4C1" stroke-width="1.5" stroke-linecap="round"/>
<path d="M27.0575 16.5L26.3748 15.0917C25.9213 14.1563 25.6946 13.6885 25.3035 13.3968C25.2167 13.3321 25.1249 13.2745 25.0288 13.2247C24.5957 13 24.0759 13 23.0363 13C21.9706 13 21.4377 13 20.9974 13.2341C20.8999 13.286 20.8067 13.3459 20.7191 13.4132C20.3234 13.7167 20.1024 14.2015 19.6604 15.1713L19.0547 16.5" stroke="white" stroke-width="1.5" stroke-linecap="round"/>
<path d="M21.5 26.6543H24.5" stroke="#ADB4C1" stroke-width="1.5" stroke-linecap="round"/>
</svg>
