<svg width="32" height="32" viewBox="0 0 32 32" fill="none" xmlns="http://www.w3.org/2000/svg">
<rect width="32" height="32" rx="16" fill="#030F29"/>
<path d="M8.5 24.3333C8.5 23.8731 8.8731 23.5 9.33333 23.5H22.6667C23.1269 23.5 23.5 23.8731 23.5 24.3333C23.5 24.7936 23.1269 25.1667 22.6667 25.1667H9.33333C8.8731 25.1667 8.5 24.7936 8.5 24.3333Z" fill="white"/>
<path fill-rule="evenodd" clip-rule="evenodd" d="M19.9226 8.60117C19.5972 8.27574 19.0695 8.27574 18.7441 8.60117L18.0119 9.33338L21 12.3215L21.7322 11.5893C22.0577 11.2639 22.0577 10.7363 21.7322 10.4108L19.9226 8.60117ZM11.7619 15.5834L16.8334 10.5119L19.8215 13.5L14.75 18.5715L11.7619 15.5834ZM10.5834 16.7619L10.1667 17.1786V20.1667H13.1548L13.5715 19.75L10.5834 16.7619ZM17.5656 7.42266C18.5419 6.44635 20.1248 6.44635 21.1011 7.42266L22.9107 9.23231C23.8871 10.2086 23.8871 11.7915 22.9107 12.7678L14.3333 21.3453C14.0208 21.6578 13.5968 21.8334 13.1548 21.8334H10.1667C9.24619 21.8334 8.5 21.0872 8.5 20.1667V17.1786C8.5 16.7366 8.67559 16.3126 8.98816 16.0001L17.5656 7.42266Z" fill="white"/>
</svg>
