<svg width="18" height="18" viewBox="0 0 18 18" fill="none" xmlns="http://www.w3.org/2000/svg">
<g clip-path="url(#clip0_5547_1384)">
<path d="M4.26769 11.2243L4.58603 10.8388L4.26769 11.2243C4.34183 11.2855 4.3743 11.3838 4.3512 11.4772L3.38075 15.3984C3.11476 16.4732 4.27417 17.3376 5.22829 16.7759L8.87309 14.6302C8.95137 14.5841 9.04848 14.5841 9.12676 14.6302L12.7716 16.7759C13.7257 17.3376 14.8851 16.4732 14.6191 15.3984L13.6487 11.4772C13.6256 11.3838 13.658 11.2855 13.7322 11.2243L16.8855 8.62087C17.7526 7.90489 17.3071 6.49731 16.1859 6.41067L11.9929 6.08668C11.9004 6.07952 11.8194 6.02169 11.7826 5.93647L10.1476 2.14756C9.71337 1.14124 8.28648 1.14124 7.85223 2.14756L6.21721 5.93647C6.18043 6.02169 6.09947 6.07952 6.00693 6.08668L1.81394 6.41067C0.692708 6.49731 0.247201 7.90488 1.1144 8.62087L1.42313 8.24694L1.1144 8.62087L4.26769 11.2243Z" stroke="#ADB4C1"/>
</g>
<defs>
<clipPath id="clip0_5547_1384">
<rect width="18" height="18" fill="white"/>
</clipPath>
</defs>
</svg>
