<svg width="18" height="19" viewBox="0 0 18 19" fill="none" xmlns="http://www.w3.org/2000/svg">
<circle cx="9" cy="9.5" r="9" fill="#DBDEE4"/>
<path d="M8.11932 13.6491V7.10369H9.66193V13.6491H8.11932ZM8.89489 6.17472C8.65057 6.17472 8.44034 6.09375 8.2642 5.93182C8.08807 5.76705 8 5.5696 8 5.33949C8 5.10653 8.08807 4.90909 8.2642 4.74716C8.44034 4.58239 8.65057 4.5 8.89489 4.5C9.14205 4.5 9.35227 4.58239 9.52557 4.74716C9.7017 4.90909 9.78977 5.10653 9.78977 5.33949C9.78977 5.5696 9.7017 5.76705 9.52557 5.93182C9.35227 6.09375 9.14205 6.17472 8.89489 6.17472Z" fill="#2D3D64"/>
</svg>
