<svg width="40" height="40" viewBox="0 0 40 40" fill="none" xmlns="http://www.w3.org/2000/svg">
<rect width="40" height="40" rx="20" fill="#F3F5F8"/>
<g clip-path="url(#clip0_928_43214)">
<path d="M20.0003 28.3337C24.6027 28.3337 28.3337 24.6027 28.3337 20.0003C28.3337 15.398 24.6027 11.667 20.0003 11.667C15.398 11.667 11.667 15.398 11.667 20.0003C11.667 24.6027 15.398 28.3337 20.0003 28.3337Z" stroke="#030F29" stroke-width="1.5"/>
<path d="M15.833 16.9831H19.583M19.583 16.9831H22.083M19.583 16.9831V15.417M24.1663 16.9831H22.083M22.083 16.9831C21.6434 18.555 20.7229 20.0409 19.6723 21.3468M19.6723 21.3468C18.8023 22.4282 17.843 23.386 16.9937 24.167M19.6723 21.3468C19.1366 20.7187 18.3866 19.7025 18.1723 19.2427M19.6723 21.3468L21.2794 23.0176" stroke="#030F29" stroke-width="1.5" stroke-linejoin="round"/>
</g>
<defs>
<clipPath id="clip0_928_43214">
<rect width="20" height="20" fill="white" transform="translate(10 10)"/>
</clipPath>
</defs>
</svg>
