<svg width="44" height="44" viewBox="0 0 44 44" fill="none" xmlns="http://www.w3.org/2000/svg">
<rect width="44" height="44" rx="22" fill="#F3F5F8"/>
<path d="M12 22C12 18.4625 12 16.6938 13.0528 15.5129C13.2212 15.324 13.4068 15.1494 13.6075 14.9909C14.8621 14 16.7414 14 20.5 14H23.5C27.2586 14 29.1379 14 30.3925 14.9909C30.5932 15.1494 30.7788 15.324 30.9472 15.5129C32 16.6938 32 18.4625 32 22C32 25.5375 32 27.3062 30.9472 28.4871C30.7788 28.676 30.5932 28.8506 30.3925 29.0091C29.1379 30 27.2586 30 23.5 30H20.5C16.7414 30 14.8621 30 13.6075 29.0091C13.4068 28.8506 13.2212 28.676 13.0528 28.4871C12 27.3062 12 25.5375 12 22Z" stroke="#2D3D64" stroke-width="1.5" stroke-linecap="round" stroke-linejoin="round"/>
<path d="M20 26H21.5" stroke="#2D3D64" stroke-width="1.5" stroke-miterlimit="10" stroke-linecap="round" stroke-linejoin="round"/>
<path d="M24.5 26H28" stroke="#2D3D64" stroke-width="1.5" stroke-miterlimit="10" stroke-linecap="round" stroke-linejoin="round"/>
<path d="M12 19H32" stroke="#2D3D64" stroke-width="1.5" stroke-linejoin="round"/>
</svg>
