<svg width="40" height="40" viewBox="0 0 40 40" fill="none" xmlns="http://www.w3.org/2000/svg">
<rect width="40" height="40" rx="20" fill="#F3F5F8"/>
<path fill-rule="evenodd" clip-rule="evenodd" d="M26.6663 14.1667H13.333C12.8728 14.1667 12.4997 14.5398 12.4997 15V25C12.4997 25.4602 12.8728 25.8333 13.333 25.8333H26.6663C27.1266 25.8333 27.4997 25.4602 27.4997 25V15C27.4997 14.5398 27.1266 14.1667 26.6663 14.1667ZM13.333 12.5C11.9523 12.5 10.833 13.6193 10.833 15V25C10.833 26.3807 11.9523 27.5 13.333 27.5H26.6663C28.0471 27.5 29.1663 26.3807 29.1663 25V15C29.1663 13.6193 28.0471 12.5 26.6663 12.5H13.333Z" fill="#030F29"/>
<path fill-rule="evenodd" clip-rule="evenodd" d="M14.3602 16.1329C14.6548 15.7793 15.1803 15.7315 15.5338 16.0262L19.4669 19.3037C19.7759 19.5612 20.2248 19.5612 20.5338 19.3037L24.4669 16.0262C24.8204 15.7315 25.3459 15.7793 25.6405 16.1329C25.9352 16.4864 25.8874 17.0119 25.5338 17.3065L21.6008 20.5841C20.6737 21.3567 19.327 21.3567 18.3999 20.5841L14.4669 17.3065C14.1133 17.0119 14.0655 16.4864 14.3602 16.1329Z" fill="#030F29"/>
</svg>
