<svg width="40" height="40" viewBox="0 0 40 40" fill="none" xmlns="http://www.w3.org/2000/svg">
<rect width="40" height="40" rx="20" fill="#F3F5F8"/>
<path d="M12.1079 21.9953C11.9307 23.1229 12.723 23.9055 13.6931 24.2955C17.412 25.7908 22.5873 25.7908 26.3063 24.2955C27.2763 23.9055 28.0686 23.1229 27.8914 21.9953C27.7825 21.3024 27.244 20.7254 26.845 20.162C26.3224 19.4149 26.2705 18.6001 26.2704 17.7332C26.2704 14.3829 23.4629 11.667 19.9997 11.667C16.5365 11.667 13.729 14.3829 13.729 17.7332C13.7289 18.6001 13.6769 19.4149 13.1544 20.162C12.7554 20.7254 12.2169 21.3024 12.1079 21.9953Z" stroke="#030F29" stroke-width="1.5" stroke-linecap="round" stroke-linejoin="round"/>
<path d="M17.5 27.5C18.1634 28.0183 19.0396 28.3333 20 28.3333C20.9604 28.3333 21.8366 28.0183 22.5 27.5" stroke="#030F29" stroke-width="1.5" stroke-linecap="round" stroke-linejoin="round"/>
</svg>
