<svg width="40" height="40" viewBox="0 0 40 40" fill="none" xmlns="http://www.w3.org/2000/svg">
<rect width="40" height="40" rx="20" fill="#F3F5F8"/>
<g clip-path="url(#clip0_2081_8481)">
<path fill-rule="evenodd" clip-rule="evenodd" d="M13.873 11.9605C14.9488 10.8847 16.7279 11.0112 17.6407 12.2283L19.156 14.2486C19.9024 15.2439 19.8035 16.6366 18.9237 17.5164L17.8066 18.6335C17.9149 18.9153 18.2713 19.5337 19.3566 20.619C20.4419 21.7044 21.0603 22.0608 21.3421 22.169L22.4593 21.0519C23.339 20.1722 24.7317 20.0732 25.727 20.8197L27.7473 22.3349C28.9644 23.2477 29.0909 25.0269 28.0151 26.1027C27.6654 26.4524 27.6062 26.5116 27.0225 27.0952C26.4277 27.6901 25.1646 28.2461 23.8859 28.3017C21.8848 28.3887 19.1666 27.5001 15.8211 24.1546C12.4755 20.809 11.587 18.0909 11.674 16.0898C11.7224 14.9766 12.0763 13.754 12.885 12.9578C13.464 12.3695 13.5393 12.2942 13.873 11.9605ZM13.3391 16.1622C13.2787 17.5493 13.8633 19.8398 16.9996 22.9761C20.1358 26.1123 22.4264 26.6969 23.8135 26.6366C25.1084 26.5803 25.803 25.9546 25.844 25.9167L26.8366 24.9241C27.1952 24.5656 27.153 23.9725 26.7473 23.6682L24.727 22.153C24.3953 21.9042 23.931 21.9372 23.6378 22.2304C23.196 22.6722 22.8944 22.9783 22.304 23.5664C21.0776 24.7881 18.9784 22.5979 18.1781 21.7975C17.4426 21.0621 15.2012 18.8962 16.408 17.6751C16.4104 17.6727 16.7354 17.3476 17.7452 16.3378C18.0385 16.0446 18.0715 15.5804 17.8226 15.2486L16.3074 13.2283C16.0031 12.8226 15.4101 12.7804 15.0515 13.139C14.7214 13.4691 14.3479 13.8426 14.0599 14.1326C13.4671 14.7295 13.3708 15.4325 13.3391 16.1622Z" fill="#030F29"/>
</g>
<defs>
<clipPath id="clip0_2081_8481">
<rect width="20" height="20" fill="white" transform="translate(10 10)"/>
</clipPath>
</defs>
</svg>
