<svg width="40" height="40" viewBox="0 0 40 40" fill="none" xmlns="http://www.w3.org/2000/svg">
<rect width="40" height="40" rx="20" fill="#F3F5F8"/>
<path fill-rule="evenodd" clip-rule="evenodd" d="M24.1667 12.4997H15.8333C14.9129 12.4997 14.1667 13.2459 14.1667 14.1663V25.833C14.1667 26.7535 14.9129 27.4997 15.8333 27.4997H24.1667C25.0871 27.4997 25.8333 26.7535 25.8333 25.833V14.1663C25.8333 13.2459 25.0871 12.4997 24.1667 12.4997ZM15.8333 10.833C13.9924 10.833 12.5 12.3254 12.5 14.1663V25.833C12.5 27.674 13.9924 29.1663 15.8333 29.1663H24.1667C26.0076 29.1663 27.5 27.674 27.5 25.833V14.1663C27.5 12.3254 26.0076 10.833 24.1667 10.833H15.8333Z" fill="#030F29"/>
<path d="M16.6663 14.167C16.2061 14.167 15.833 14.5401 15.833 15.0003C15.833 15.4606 16.2061 15.8337 16.6663 15.8337H23.333C23.7932 15.8337 24.1663 15.4606 24.1663 15.0003C24.1663 14.5401 23.7932 14.167 23.333 14.167H16.6663Z" fill="#030F29"/>
<path d="M19.9997 25.8337C20.4599 25.8337 20.833 25.4606 20.833 25.0003C20.833 24.5401 20.4599 24.167 19.9997 24.167C19.5394 24.167 19.1663 24.5401 19.1663 25.0003C19.1663 25.4606 19.5394 25.8337 19.9997 25.8337Z" fill="#030F29"/>
</svg>
