<svg width="44" height="44" viewBox="0 0 44 44" fill="none" xmlns="http://www.w3.org/2000/svg">
<rect width="44" height="44" rx="22" fill="#F3F5F8"/>
<path d="M12.5 19C12.5304 18.1954 12.6201 17.3767 12.7693 16.5501C12.8806 15.9337 12.9362 15.6256 13.1262 15.4146C13.3162 15.2037 13.7857 15.0541 14.7247 14.7549C17.0341 14.019 18.9867 12 21.9982 12C25.0099 12 26.9647 14.0192 29.275 14.755C30.2139 15.0541 30.6834 15.2036 30.8734 15.4145C31.0635 15.6254 31.1191 15.9336 31.2305 16.5501C31.3797 17.3767 31.4695 18.1954 31.5 19M29.4451 27C28.125 29.0226 26.1772 30.6375 23.6147 31.6175C22.9478 31.8725 22.6143 32 22.0015 32C21.3887 32 21.0553 31.8725 20.3883 31.6175C17.8256 30.6375 15.8773 29.0227 14.5567 27" stroke="#2D3D64" stroke-width="1.5" stroke-linecap="round" stroke-linejoin="round"/>
<path d="M18.5 22L19.5 23M19.5 23L20.5 24M19.5 23L20.5 22M19.5 23L18.5 24" stroke="#2D3D64" stroke-width="1.5" stroke-linecap="round"/>
<path d="M13.5 22L14.5 23M14.5 23L15.5 24M14.5 23L15.5 22M14.5 23L13.5 24" stroke="#2D3D64" stroke-width="1.5" stroke-linecap="round"/>
<path d="M23.5 22L24.5 23M24.5 23L25.5 24M24.5 23L25.5 22M24.5 23L23.5 24" stroke="#2D3D64" stroke-width="1.5" stroke-linecap="round"/>
<path d="M28.5 22L29.5 23M29.5 23L30.5 24M29.5 23L30.5 22M29.5 23L28.5 24" stroke="#2D3D64" stroke-width="1.5" stroke-linecap="round"/>
</svg>
