<svg width="40" height="40" viewBox="0 0 40 40" fill="none" xmlns="http://www.w3.org/2000/svg">
<rect width="40" height="40" rx="20" fill="#F3F5F8"/>
<g clip-path="url(#clip0_2649_16710)">
<path d="M20.0003 28.3332C24.6027 28.3332 28.3337 24.6022 28.3337 19.9998C28.3337 15.3975 24.6027 11.6665 20.0003 11.6665C15.398 11.6665 11.667 15.3975 11.667 19.9998C11.667 24.6022 15.398 28.3332 20.0003 28.3332Z" stroke="#030F29" stroke-width="1.5"/>
<path d="M15.833 16.9826H19.583M19.583 16.9826H22.083M19.583 16.9826V15.4165M24.1663 16.9826H22.083M22.083 16.9826C21.6434 18.5545 20.7229 20.0404 19.6723 21.3463M19.6723 21.3463C18.8023 22.4277 17.843 23.3855 16.9937 24.1665M19.6723 21.3463C19.1366 20.7183 18.3866 19.702 18.1723 19.2423M19.6723 21.3463L21.2794 23.0171" stroke="#030F29" stroke-width="1.5" stroke-linejoin="round"/>
</g>
<defs>
<clipPath id="clip0_2649_16710">
<rect width="20" height="20" fill="white" transform="translate(10 10)"/>
</clipPath>
</defs>
</svg>
