<svg width="40" height="40" viewBox="0 0 40 40" fill="none" xmlns="http://www.w3.org/2000/svg">
<rect width="40" height="40" rx="20" fill="#F3F5F8"/>
<path d="M15.8337 15.4168H23.9587C25.7142 15.4168 26.592 15.4168 27.2226 15.8382C27.4956 16.0206 27.7299 16.2549 27.9123 16.5279C28.3337 17.1585 28.3337 18.2446 28.3337 20.0002M20.0003 15.4168L19.4725 14.3611C19.0352 13.4865 18.6355 12.6061 17.6664 12.2427C17.2419 12.0835 16.757 12.0835 15.7872 12.0835C14.2735 12.0835 13.5166 12.0835 12.9487 12.4004C12.5439 12.6263 12.2098 12.9604 11.9839 13.3652C11.667 13.9331 11.667 14.69 11.667 16.2037V18.7502C11.667 22.2325 11.667 24.1713 12.5171 25.4168" stroke="#030F29" stroke-width="1.5" stroke-linecap="round"/>
<path d="M15.5479 22.9744L17.2666 22.9283C18.1814 22.9038 18.6388 22.8915 18.9154 23.1681C19.192 23.4447 19.1797 23.9021 19.1552 24.8169L19.1092 26.5356M18.8636 23.2199L14.167 27.9165" stroke="#030F29" stroke-width="1.5" stroke-linecap="round" stroke-linejoin="round"/>
<path d="M28.3333 22.9165H22.5M28.3333 25.4165H22.5M25.4167 27.9165H22.5" stroke="#030F29" stroke-width="1.5" stroke-linecap="round"/>
</svg>
