<svg width="44" height="44" viewBox="0 0 44 44" fill="none" xmlns="http://www.w3.org/2000/svg">
<rect width="44" height="44" rx="22" fill="#F3F5F8"/>
<path d="M24.491 25.5H24.5M19.5 25.5H19.509" stroke="#2D3D64" stroke-width="2" stroke-linecap="round" stroke-linejoin="round"/>
<path d="M14.2678 28.8447C14.4927 30.515 15.8761 31.8235 17.5597 31.9009C18.9763 31.966 20.4153 32 22 32C23.5847 32 25.0237 31.966 26.4403 31.9009C28.1239 31.8235 29.5073 30.515 29.7322 28.8447C29.879 27.7547 30 26.6376 30 25.5C30 24.3624 29.879 23.2453 29.7322 22.1553C29.5073 20.485 28.1239 19.1765 26.4403 19.0991C25.0237 19.034 23.5847 19 22 19C20.4153 19 18.9763 19.034 17.5597 19.0991C15.8761 19.1765 14.4927 20.485 14.2678 22.1553C14.121 23.2453 14 24.3624 14 25.5C14 26.6376 14.121 27.7547 14.2678 28.8447Z" stroke="#2D3D64" stroke-width="1.5"/>
<path d="M17.5 19V16.5C17.5 14.0147 19.5147 12 22 12C24.4853 12 26.5 14.0147 26.5 16.5V19" stroke="#2D3D64" stroke-width="1.5" stroke-linecap="round" stroke-linejoin="round"/>
</svg>
