<svg width="40" height="40" viewBox="0 0 40 40" fill="none" xmlns="http://www.w3.org/2000/svg">
<rect width="40" height="40" rx="20" fill="#F3F5F8"/>
<path d="M10.5 16.1868C10.6041 14.0871 10.9154 12.7779 11.8466 11.8466C12.7779 10.9154 14.0871 10.6041 16.1868 10.5M29.5 16.1868C29.3959 14.0871 29.0846 12.7779 28.1534 11.8466C27.2221 10.9154 25.9129 10.6041 23.8132 10.5M23.8132 29.5C25.9129 29.3959 27.2221 29.0846 28.1534 28.1534C29.0846 27.2221 29.3959 25.9129 29.5 23.8132M16.1868 29.5C14.087 29.3959 12.7779 29.0846 11.8466 28.1534C10.9154 27.2221 10.6041 25.9129 10.5 23.8132" stroke="#030F29" stroke-width="1.5" stroke-linecap="round" stroke-linejoin="round"/>
<path d="M10.5 20H29.5" stroke="#030F29" stroke-width="1.5" stroke-linecap="round"/>
</svg>
