<svg width="48" height="48" viewBox="0 0 48 48" fill="none" xmlns="http://www.w3.org/2000/svg">
<rect x="0.5" y="0.5" width="47" height="47" rx="13.5" stroke="#DBDEE4"/>
<path fill-rule="evenodd" clip-rule="evenodd" d="M31 18H17C16.4477 18 16 18.4477 16 19V31C16 31.5523 16.4477 32 17 32H31C31.5523 32 32 31.5523 32 31V19C32 18.4477 31.5523 18 31 18ZM17 16C15.3431 16 14 17.3431 14 19V31C14 32.6569 15.3431 34 17 34H31C32.6569 34 34 32.6569 34 31V19C34 17.3431 32.6569 16 31 16H17Z" fill="#606C87"/>
<path fill-rule="evenodd" clip-rule="evenodd" d="M22 24C21.4477 24 21 24.4477 21 25C21 25.5523 21.4477 26 22 26H29C29.5523 26 30 25.5523 30 25C30 24.4477 29.5523 24 29 24H22ZM19 28C18.4477 28 18 28.4477 18 29C18 29.5523 18.4477 30 19 30H25C25.5523 30 26 29.5523 26 29C26 28.4477 25.5523 28 25 28H19Z" fill="#606C87"/>
<path fill-rule="evenodd" clip-rule="evenodd" d="M19 14C18.4477 14 18 14.4477 18 15V19C18 19.5523 18.4477 20 19 20C19.5523 20 20 19.5523 20 19V15C20 14.4477 19.5523 14 19 14ZM29 14C28.4477 14 28 14.4477 28 15V19C28 19.5523 28.4477 20 29 20C29.5523 20 30 19.5523 30 19V15C30 14.4477 29.5523 14 29 14Z" fill="#606C87"/>
</svg>
