<svg width="390" height="295" viewBox="0 0 390 295" fill="none" xmlns="http://www.w3.org/2000/svg">
<path d="M182.177 117.728C189.436 111.088 200.564 111.088 207.823 117.728L214.245 123.601C217.532 126.608 221.771 128.364 226.221 128.562L234.915 128.95C244.743 129.388 252.612 137.257 253.05 147.085L253.438 155.779C253.636 160.229 255.392 164.468 258.398 167.755L264.272 174.177C270.911 181.436 270.911 192.564 264.272 199.823L258.398 206.245C255.392 209.532 253.636 213.771 253.438 218.221L253.05 226.915C252.612 236.743 244.743 244.612 234.915 245.05L226.221 245.438C221.771 245.636 217.532 247.392 214.245 250.398L207.823 256.272C200.564 262.911 189.436 262.911 182.177 256.272L175.755 250.398C172.468 247.392 168.229 245.636 163.779 245.438L155.085 245.05C145.257 244.612 137.388 236.743 136.95 226.915L136.562 218.221C136.364 213.771 134.608 209.532 131.601 206.245L125.728 199.823C119.088 192.564 119.088 181.436 125.728 174.177L131.601 167.755C134.608 164.468 136.364 160.229 136.562 155.779L136.95 147.085C137.388 137.257 145.257 129.388 155.085 128.95L163.779 128.562C168.229 128.364 172.468 126.608 175.755 123.601L182.177 117.728Z" fill="#687BFC"/>
<path d="M179 189.385C179 189.385 186.714 188.333 192.714 202C192.714 202 210.059 167.833 227 161" stroke="white" stroke-width="7" stroke-linecap="round" stroke-linejoin="round"/>
<circle cx="116" cy="93" r="6" fill="#FF9E9E"/>
<circle cx="178.5" cy="49.5" r="3.5" fill="#D19EFF"/>
<circle cx="43.5" cy="128.5" r="3.5" fill="#CCE4FF"/>
<circle cx="338.5" cy="149.5" r="3.5" fill="#FFB69E"/>
<circle cx="284" cy="99" r="6" fill="#9EB5FF"/>
<circle cx="64" cy="213" r="6" fill="#FFDEBC"/>
<circle cx="308" cy="225" r="6" fill="#AAE7A7"/>
<circle cx="266.5" cy="32.5" r="4.5" fill="#C2F0F3"/>
</svg>
