<svg width="383" height="406" viewBox="0 0 383 406" fill="none" xmlns="http://www.w3.org/2000/svg">
<mask id="mask0_1593_14482" style="mask-type:alpha" maskUnits="userSpaceOnUse" x="0" y="0" width="390" height="406">
<ellipse cx="195" cy="203" rx="195" ry="203" fill="#D9D9D9"/>
</mask>
<g mask="url(#mask0_1593_14482)">
<path d="M325.181 95.3744C325.181 115.253 321.798 144.506 281.518 162.931C238.337 143.86 237.854 115.253 237.854 95.3744V71.4549L281.518 54.0002L325.181 71.4549V95.3744Z" fill="#2FB8FE"/>
<path d="M275.234 134.324L249.776 105.395L259.121 98.445L275.072 116.385L303.108 83.0912L312.614 89.8792L275.234 134.324Z" fill="white"/>
<path d="M154.553 92.1422C157.668 92.1422 160.193 89.6096 160.193 86.4855C160.193 83.3615 157.668 80.8289 154.553 80.8289C151.439 80.8289 148.914 83.3615 148.914 86.4855C148.914 89.6096 151.439 92.1422 154.553 92.1422Z" fill="#A8B3FE"/>
<path d="M343.871 235.982C343.871 239.053 341.293 241.639 338.232 241.639C335.171 241.639 332.593 239.053 332.593 235.982C332.593 232.912 335.171 230.326 338.232 230.326C341.454 230.326 343.871 232.75 343.871 235.982Z" fill="#2FB8FE"/>
<path d="M82.8544 153.718C83.3378 153.718 83.66 154.203 83.66 154.688C83.66 155.173 83.1767 155.496 82.6933 155.496C82.2099 155.496 81.8877 155.011 81.8877 154.526C82.0488 154.042 82.3711 153.718 82.8544 153.718Z" fill="#030F29"/>
<path d="M83.3377 119.132C83.4989 119.132 83.8211 119.293 83.8211 119.617C83.8211 119.778 83.9822 119.778 83.9822 119.94C83.9822 120.102 83.9822 120.102 83.9822 120.263C83.8211 120.748 83.3377 121.071 82.8544 120.91C82.371 120.748 82.0488 120.263 82.2099 119.778C82.2099 119.617 82.371 119.617 82.371 119.455C82.371 119.293 82.5321 119.293 82.6933 119.293C82.8544 118.97 83.0155 118.97 83.3377 119.132Z" fill="#030F29"/>
<path d="M116.046 119.455C116.529 119.617 116.69 120.263 116.529 120.748C116.368 121.233 115.723 121.394 115.401 121.233C114.918 121.071 114.757 120.425 114.918 119.94C115.079 119.293 115.562 119.132 116.046 119.455Z" fill="#030F29"/>
<path d="M92.1991 101.192C92.5214 101.516 92.6825 102 92.3602 102.485C92.038 102.808 91.5546 102.97 91.0713 102.647C90.5879 102.324 90.5879 101.839 90.9101 101.354C91.2324 101.031 91.8769 101.031 92.1991 101.192Z" fill="#030F29"/>
<path d="M140.858 136.102C141.18 136.425 141.18 137.072 140.858 137.395C140.536 137.718 139.891 137.718 139.569 137.395C139.247 137.072 139.247 136.425 139.569 136.102C139.891 135.617 140.536 135.779 140.858 136.102Z" fill="#030F29"/>
<path d="M92.8443 127.859C93.3277 127.859 93.6499 128.183 93.9722 128.506C94.2944 128.829 94.4555 129.314 94.2944 129.799C94.2944 130.284 93.9722 130.607 93.6499 130.93C93.3277 131.253 92.8443 131.415 92.361 131.415C91.8776 131.415 91.3942 131.092 91.2331 130.769C90.9109 130.445 90.7497 129.96 90.9109 129.476C90.9109 128.991 91.2331 128.506 91.5554 128.183C91.8776 128.021 92.361 127.859 92.8443 127.859Z" fill="#030F29"/>
<path d="M116.691 109.435C117.013 109.758 117.335 110.081 117.496 110.566C117.657 111.051 117.496 111.536 117.335 111.859C117.013 112.182 116.691 112.506 116.368 112.667C115.885 112.829 115.402 112.829 115.079 112.506C114.596 112.344 114.435 111.859 114.274 111.536C114.113 111.051 114.113 110.566 114.435 110.243C114.757 109.758 115.079 109.596 115.563 109.435C115.724 109.112 116.207 109.273 116.691 109.435Z" fill="#030F29"/>
<path d="M307.458 392.105C307.136 391.782 306.975 391.136 307.297 390.813C307.619 390.489 308.102 390.328 308.586 390.651C308.908 390.974 309.069 391.621 308.747 391.944C308.425 392.429 307.78 392.429 307.458 392.105Z" fill="#030F29"/>
<path d="M260.732 401.318C260.571 400.833 260.732 400.348 261.054 400.025C261.538 399.701 262.021 399.863 262.343 400.348C262.666 400.833 262.504 401.318 262.021 401.641C261.538 401.802 260.893 401.641 260.732 401.318Z" fill="#030F29"/>
<path d="M249.938 373.358C249.938 372.873 250.26 372.388 250.743 372.388C251.226 372.388 251.71 372.711 251.71 373.196C251.871 373.681 251.388 374.166 250.904 374.166C250.421 374.166 249.938 373.843 249.938 373.358Z" fill="#030F29"/>
<path d="M284.578 407.62C284.256 407.297 284.095 406.812 284.095 406.489C284.095 406.004 284.256 405.681 284.578 405.196C284.9 404.873 285.384 404.711 285.706 404.55C286.189 404.55 286.673 404.55 286.995 404.873C287.317 405.196 287.639 405.519 287.639 406.004C287.639 406.489 287.478 406.974 287.156 407.297C286.834 407.62 286.35 407.944 285.867 407.944C285.384 408.105 284.9 407.944 284.578 407.62Z" fill="#030F29"/>
<path d="M311.163 173.759C308.908 171.981 305.846 175.537 305.524 175.86C305.685 175.537 308.263 172.466 305.363 171.335C303.752 170.85 301.818 171.173 299.563 174.729C296.501 179.578 293.923 183.941 293.923 183.941C293.923 183.941 294.729 179.416 296.824 174.406C297.951 171.497 296.34 170.204 295.535 170.042C293.601 169.719 292.151 170.204 289.734 175.375C287.156 180.547 286.189 183.618 286.189 183.618C286.189 183.618 273.139 184.103 268.627 185.881C266.855 186.527 265.727 189.921 264.921 193.477C264.116 197.356 260.571 224.507 258.638 231.457C265.566 233.72 272.655 235.982 279.584 237.76C280.872 238.083 284.095 238.407 284.095 238.407C284.095 238.407 285.384 212.386 286.028 203.82C286.19 201.073 287.962 198.648 290.379 197.517C295.857 194.931 304.719 191.214 305.363 190.406C307.296 188.143 309.874 183.295 311.486 177.961C312.452 175.214 311.969 174.244 311.163 173.759Z" fill="#FFA081"/>
<path d="M299.241 189.759C299.08 189.759 299.08 189.759 298.919 189.759C298.596 189.598 298.435 189.113 298.596 188.79C299.08 187.82 305.686 174.244 306.008 173.759C306.169 173.436 306.653 173.274 306.975 173.436C307.297 173.597 307.458 174.082 307.297 174.405C307.297 174.567 300.369 188.466 300.047 189.436C299.885 189.598 299.563 189.759 299.241 189.759Z" fill="#030F29"/>
<path d="M292.635 187.981H292.473C292.151 187.82 291.829 187.496 291.99 187.011L294.085 180.385C294.246 180.062 294.568 179.739 295.051 179.9C295.374 180.062 295.696 180.385 295.535 180.87L293.44 187.496C293.279 187.82 292.957 187.981 292.635 187.981Z" fill="#030F29"/>
<path d="M305.524 190.567C305.524 190.567 315.997 182.163 316.642 180.87C317.286 179.577 313.419 176.183 311.647 178.284L305.524 190.567Z" fill="#FFA081"/>
<path d="M305.363 191.537C305.202 191.537 305.202 191.537 305.041 191.537C304.718 191.375 304.557 190.891 304.718 190.567L311.486 176.183C311.647 175.86 312.13 175.699 312.452 175.86C312.775 176.022 312.936 176.507 312.775 176.83L306.007 191.214C305.846 191.375 305.524 191.537 305.363 191.537Z" fill="#030F29"/>
<path fill-rule="evenodd" clip-rule="evenodd" d="M123.618 299.175L175.66 298.367L201.923 299.013L223.191 304.993C223.191 304.993 232.214 391.136 229.474 461.763H182.266C180.493 427.5 175.499 361.236 175.499 361.236C175.499 361.236 174.21 381.923 160.676 461.763H114.111L123.618 299.175Z" fill="#030F29"/>
<path d="M174.854 374.327C174.371 374.327 174.049 373.843 174.049 373.519L176.788 351.378C177.432 345.883 179.688 340.711 183.394 336.509L187.1 332.145C187.422 331.822 187.905 331.822 188.228 332.145C188.55 332.468 188.55 332.953 188.228 333.276L184.361 337.64C180.977 341.681 178.721 346.529 178.077 351.701L175.338 373.843C175.499 374.004 175.177 374.327 174.854 374.327Z" fill="white"/>
<path fill-rule="evenodd" clip-rule="evenodd" d="M263.633 192.669L254.61 221.437C250.904 214.487 236.081 194.285 227.058 187.335C215.618 178.446 192.095 177.476 192.095 177.476C192.095 177.476 171.954 176.992 166.96 177.315C158.581 177.961 119.268 180.709 113.306 202.527C109.6 215.78 105.089 235.497 103.639 248.265C102.028 262.649 89.7823 305.155 114.756 336.347C132.157 357.842 132.318 355.256 132.318 355.256L148.753 317.761L141.341 305.478C141.18 305.478 141.986 304.67 142.147 304.67C145.047 304.832 187.1 304.832 186.455 304.67C186.455 304.67 186.455 304.67 186.294 304.508L224.802 304.993L225.608 262.811C225.93 282.528 249.615 286.084 257.671 282.528C283.934 270.892 285.867 235.497 296.985 203.497L263.633 192.669Z" fill="#A8B3FE"/>
<path d="M170.827 124.951H175.983L177.111 127.536C181.783 127.86 199.507 128.991 199.507 128.991L201.601 132.062L202.568 154.365C202.568 157.921 200.473 163.092 191.451 163.254V173.436L183.395 181.679C183.395 181.679 169.699 174.406 169.538 173.436C169.538 172.466 170.827 124.951 170.827 124.951Z" fill="#FFA081"/>
<path d="M191.45 169.88C183.878 169.072 180.333 165.031 178.883 161.961C178.561 161.314 179.366 160.506 180.011 160.991C184.683 164.223 191.45 163.092 191.45 163.092C191.45 163.739 191.45 164.385 191.45 165.193V169.88Z" fill="#EF7067"/>
<path d="M167.765 123.173C167.765 123.173 167.765 115.9 178.883 115.9C182.266 115.9 184.844 117.193 187.422 117.516C190.967 118.001 201.44 115.9 201.923 119.294C202.084 120.748 200.473 121.395 198.862 121.556C208.046 123.496 209.818 128.991 208.046 131.415C206.435 133.678 191.934 132.062 183.072 129.314C181.944 128.991 180.816 129.961 180.977 131.092C181.3 133.193 181.461 135.94 180.011 138.365C178.238 141.759 174.855 142.728 174.855 142.728L174.049 150.001C174.049 150.001 174.855 157.759 170.021 158.405C170.021 158.405 170.021 155.658 165.993 147.577C163.093 141.92 160.837 125.92 167.765 123.173Z" fill="#030F29"/>
<path d="M194.995 151.618C194.673 151.618 194.351 151.294 194.189 150.971C194.189 150.486 194.512 150.163 194.834 150.163C196.284 150.001 197.412 149.032 197.573 148.547C195.156 144.345 194.995 140.789 194.995 140.627C194.995 140.143 195.317 139.819 195.801 139.819C196.284 139.819 196.606 140.143 196.606 140.627C196.606 140.627 196.767 144.021 199.023 147.9C199.184 148.062 199.345 148.547 199.023 149.193C198.54 150.163 196.767 151.456 194.995 151.618Z" fill="#030F29"/>
<path d="M196.606 139.496C196.445 139.496 196.123 139.335 195.961 139.173C195.639 138.85 195.639 138.365 195.961 138.042C196.123 138.042 198.056 136.102 200.312 137.234C200.634 137.395 200.795 137.88 200.634 138.203C200.473 138.527 199.989 138.688 199.667 138.527C198.378 137.88 196.928 139.011 196.928 139.173C197.089 139.496 196.767 139.496 196.606 139.496Z" fill="#030F29"/>
<path fill-rule="evenodd" clip-rule="evenodd" d="M199.023 178.931L192.578 167.941L186.133 180.062L166.315 167.133L158.581 178.285L172.115 197.194L183.877 187.82L191.772 196.224L199.023 178.931Z" fill="#A8B3FE"/>
<path d="M177.111 198.325C176.949 198.325 176.788 198.325 176.627 198.163L159.065 181.355C158.743 181.032 158.743 180.547 159.065 180.224C159.387 179.901 159.871 179.901 160.193 180.224L176.949 196.386L185.972 181.84C186.133 181.678 186.294 181.517 186.617 181.517C186.939 181.517 187.1 181.678 187.261 181.84L196.929 194.446L198.218 179.416C198.218 178.931 198.701 178.608 199.023 178.769C199.506 178.769 199.829 179.254 199.668 179.577L198.218 196.547C198.218 196.87 197.895 197.194 197.734 197.194C197.412 197.355 197.09 197.194 196.929 196.87L186.778 183.618L177.755 198.002C177.594 198.163 177.433 198.325 177.111 198.325Z" fill="#030F29"/>
<path d="M189.677 308.711C189.194 308.711 188.872 308.387 188.872 307.903C192.578 236.79 185.972 182.81 185.972 182.325C185.972 181.84 186.294 181.517 186.616 181.517C187.1 181.517 187.422 181.84 187.422 182.164C187.422 182.648 194.189 236.629 190.322 308.064C190.483 308.387 190 308.711 189.677 308.711Z" fill="#030F29"/>
<path fill-rule="evenodd" clip-rule="evenodd" d="M197.895 224.992C197.895 226.447 198.861 227.74 199.828 227.74C200.956 227.74 201.761 226.447 201.761 224.992C201.761 223.538 200.795 222.245 199.828 222.245C198.861 222.245 197.895 223.538 197.895 224.992Z" fill="#E9ECFF"/>
<path fill-rule="evenodd" clip-rule="evenodd" d="M195.317 288.832C195.317 290.286 196.284 291.579 197.251 291.579C198.379 291.579 199.184 290.286 199.184 288.832C199.184 287.377 198.218 286.084 197.251 286.084C196.123 285.923 195.317 287.216 195.317 288.832Z" fill="#E9ECFF"/>
<path fill-rule="evenodd" clip-rule="evenodd" d="M197.25 255.214C197.25 256.669 198.217 257.962 199.183 257.962C200.311 257.962 201.117 256.669 201.117 255.214C201.117 253.76 200.15 252.467 199.183 252.467C198.217 252.467 197.25 253.598 197.25 255.214Z" fill="#E9ECFF"/>
<path d="M225.93 270.892C225.447 270.892 225.125 270.569 225.125 270.084C225.125 269.76 225.93 234.851 223.514 211.578C223.514 211.093 223.836 210.77 224.158 210.77C224.642 210.77 224.964 211.093 224.964 211.416C227.381 234.689 226.575 269.76 226.575 270.084C226.575 270.569 226.253 270.892 225.93 270.892Z" fill="#030F29"/>
<path d="M142.63 306.124C142.146 306.124 141.824 305.801 141.824 305.316C141.824 304.993 143.113 267.174 143.113 212.224C143.113 211.739 143.435 211.416 143.919 211.416C144.402 211.416 144.724 211.739 144.724 212.224C144.724 267.174 143.435 304.993 143.435 305.316C143.274 305.801 142.952 306.124 142.63 306.124Z" fill="#030F29"/>
<path d="M186.295 140.951C186.133 140.951 185.972 140.951 185.972 140.789C185.65 140.628 185.489 140.143 185.65 139.819C186.295 138.688 188.389 136.749 191.773 138.365C192.095 138.526 192.256 139.011 192.095 139.335C191.934 139.658 191.45 139.819 191.128 139.658C188.389 138.365 187.1 140.304 186.939 140.466C186.778 140.789 186.617 140.951 186.295 140.951Z" fill="#030F29"/>
<path d="M188.067 143.213C188.067 142.728 188.067 142.405 188.067 141.92C188.067 141.597 188.39 141.273 188.712 141.273H188.873C189.034 141.273 189.356 141.435 189.356 141.597C189.356 141.758 189.356 141.758 189.356 141.758C189.356 142.081 189.517 142.566 189.517 143.051C189.517 143.536 189.679 143.859 189.356 144.182C189.195 144.344 188.712 144.506 188.551 144.344C188.067 144.021 188.229 143.698 188.067 143.213Z" fill="#030F29"/>
<path d="M198.862 142.728C198.862 142.243 198.862 141.92 198.862 141.435C198.862 141.112 199.185 140.789 199.507 140.789H199.668C199.829 140.789 200.151 140.95 200.151 141.112C200.151 141.274 200.151 141.274 200.151 141.274C200.151 141.597 200.312 142.082 200.312 142.566C200.312 143.051 200.474 143.375 200.151 143.698C199.99 143.859 199.507 144.021 199.346 143.859C198.862 143.536 198.862 143.213 198.862 142.728Z" fill="#030F29"/>
<path d="M191.45 155.819C190.967 155.819 190.645 155.658 190.161 155.496C188.228 154.526 188.389 152.264 188.389 152.102C188.389 151.617 188.872 151.456 189.195 151.456C189.678 151.456 190 151.941 189.839 152.264C189.839 152.264 189.678 153.718 190.645 154.042C192.095 154.688 193.223 153.072 193.223 152.91C193.384 152.587 193.867 152.425 194.189 152.587C194.512 152.749 194.673 153.233 194.512 153.557C194.189 154.526 192.9 155.819 191.45 155.819Z" fill="#030F29"/>
<path d="M130.868 360.105C130.707 360.105 130.707 360.105 130.546 360.105C130.224 359.943 129.901 359.458 130.062 359.135C137.474 341.68 148.43 315.013 148.753 313.559C148.753 313.074 149.236 312.912 149.558 312.912C150.041 312.912 150.203 313.397 150.203 313.721C150.041 315.175 134.574 352.347 131.351 359.782C131.351 359.943 131.029 360.105 130.868 360.105Z" fill="white"/>
<path d="M144.563 309.842C144.241 309.842 144.08 309.68 143.919 309.518L125.068 280.104C124.907 279.781 124.907 279.296 125.229 278.973C125.551 278.811 126.034 278.811 126.357 279.134L145.208 308.549C145.369 308.872 145.369 309.357 145.047 309.68C144.886 309.842 144.725 309.842 144.563 309.842Z" fill="#030F29"/>
<path d="M247.681 239.861C247.52 239.861 247.52 239.861 247.359 239.861C247.037 239.699 246.715 239.215 246.876 238.891L253.804 221.437C253.965 221.113 254.449 220.79 254.771 220.952C255.093 221.113 255.415 221.598 255.254 221.921L248.326 239.376C248.326 239.538 248.004 239.861 247.681 239.861Z" fill="#030F29"/>
<path d="M176.466 150.001C174.694 151.132 171.955 150.486 170.343 148.385C168.732 146.284 168.732 143.698 170.504 142.405C172.277 141.274 175.016 141.92 176.627 144.021C178.238 146.122 178.238 148.87 176.466 150.001Z" fill="#FFA081"/>
<path d="M176.305 149.031C175.983 149.031 175.5 148.708 175.5 148.385C175.339 144.991 171.472 144.668 171.31 144.668C170.827 144.668 170.666 144.183 170.666 143.859C170.666 143.375 171.149 143.213 171.472 143.213C173.244 143.375 176.789 144.668 177.111 148.385C177.111 148.708 176.789 149.031 176.305 149.031Z" fill="#030F29"/>
<path d="M244.298 226.77C243.975 226.77 243.814 226.608 243.653 226.447C243.492 226.124 243.653 225.639 243.975 225.477L250.904 221.598C251.226 221.437 251.709 221.598 251.87 221.922C252.031 222.245 251.87 222.73 251.548 222.891L244.62 226.77C244.459 226.77 244.459 226.77 244.298 226.77Z" fill="#030F29"/>
<path d="M78.3427 331.499C77.376 331.499 76.4092 330.852 75.9259 329.882C73.9924 324.872 68.9976 323.903 63.3584 322.771C57.0746 321.478 50.1464 320.024 47.0851 312.589C44.0238 305.155 48.0518 299.175 51.5965 293.842C54.8189 288.993 57.7191 284.953 55.6245 279.942C55.1412 278.649 55.7856 277.195 57.0746 276.71C58.3636 276.225 59.8137 276.872 60.2971 278.165C63.3584 285.599 59.3303 291.579 55.7856 296.912C52.5632 301.761 49.663 305.801 51.7576 310.812C53.6911 315.822 58.6858 316.791 64.3251 317.923C70.6088 319.216 77.5371 320.67 80.5984 328.105C81.0818 329.398 80.4373 330.852 79.1483 331.337C78.9872 331.499 78.6649 331.499 78.3427 331.499Z" fill="#A8E2FF"/>
<mask id="mask1_1593_14482" style="mask-type:luminance" maskUnits="userSpaceOnUse" x="298" y="289" width="30" height="56">
<path d="M298.756 344.758H327.436V289H298.756V344.758Z" fill="white"/>
</mask>
<g mask="url(#mask1_1593_14482)">
<path d="M327.598 289.111H298.918V344.869H327.598V289.111Z" fill="#A8E2FF"/>
</g>
<path d="M313.097 317.718H271.366C270.883 317.718 270.561 317.395 270.561 316.91C270.561 316.425 270.883 316.102 271.366 316.102H313.097C313.58 316.102 313.902 316.425 313.902 316.91C313.902 317.395 313.58 317.718 313.097 317.718Z" fill="#030F29"/>
</g>
</svg>
