<svg width="86" height="71" viewBox="0 0 86 71" fill="none" xmlns="http://www.w3.org/2000/svg">
<path d="M67.7047 40.3804L64.6853 50.1126L60.7175 40.2057C55.8269 39.2095 51.4869 36.4175 48.5528 32.3801C45.6187 28.3426 44.3034 23.3525 44.8661 18.3933C45.4287 13.4342 47.8286 8.86563 51.5926 5.58813C55.3567 2.31062 60.2119 0.561926 65.2013 0.686662C70.1907 0.811397 74.9525 2.80053 78.548 6.26202C82.1436 9.72351 84.3121 14.4063 84.6263 19.3874C84.9404 24.3685 83.3774 29.2866 80.2452 33.1724C77.113 37.0582 72.639 39.6298 67.7047 40.3804Z" fill="white"/>
<path d="M64.7603 51.9717L60.2685 40.7422C55.2657 39.6403 50.8525 36.715 47.8891 32.5366C44.9256 28.3581 43.6243 23.2259 44.2387 18.1402C44.8531 13.0545 47.3392 8.37981 51.2124 5.02728C55.0857 1.67474 60.0685 -0.115393 65.1898 0.00577198C70.311 0.126937 75.2036 2.15072 78.914 5.68268C82.6243 9.21464 84.8866 14.0017 85.2598 19.1107C85.633 24.2198 84.0904 29.2847 80.9326 33.3183C77.7749 37.352 73.2283 40.0653 68.179 40.9293L64.7603 51.9717ZM64.6854 1.22689C59.8823 1.22919 55.2511 3.01534 51.6903 6.23886C48.1295 9.46239 45.8928 13.8935 45.4141 18.6728C44.9354 23.452 46.2488 28.2388 49.0995 32.1045C51.9503 35.9702 56.1351 38.6394 60.8424 39.5943L61.1793 39.6567L64.6106 48.241L67.2183 39.8189L67.6051 39.7565C72.4304 39.0154 76.7981 36.4802 79.835 32.6579C82.8719 28.8355 84.3541 24.0078 83.9852 19.1398C83.6163 14.2719 81.4236 9.72257 77.8454 6.40151C74.2672 3.08045 69.5673 1.23241 64.6854 1.22689Z" fill="#687BFC"/>
<path d="M66.7449 17.5597C66.8572 16.3119 65.7717 15.5758 64.1871 15.5758C63.3763 15.5777 62.579 15.7831 61.8683 16.1734C61.1576 16.5636 60.5562 17.1261 60.1195 17.8092L55.7275 15.3138C57.6116 12.5563 60.7184 10.7346 65.3225 10.7346C70.1013 10.7346 73.3204 12.7684 72.996 16.549C72.5717 21.3902 67.4312 22.1014 67.1816 24.9462H61.6293C62.016 20.9035 66.5453 19.8804 66.7449 17.5597ZM60.5063 29.8871C60.604 28.9773 61.0462 28.1393 61.7423 27.5453C62.4384 26.9513 63.3356 26.6463 64.2495 26.693C64.6825 26.6469 65.1203 26.6974 65.5314 26.8409C65.9425 26.9844 66.3166 27.2173 66.6269 27.5228C66.9372 27.8283 67.1759 28.1988 67.3257 28.6077C67.4756 29.0165 67.5329 29.4535 67.4936 29.8871C67.3871 30.8089 66.9353 31.6561 66.2292 32.2581C65.523 32.86 64.615 33.172 63.688 33.1312C63.2554 33.166 62.8204 33.1056 62.4136 32.9541C62.0069 32.8027 61.6383 32.5639 61.3338 32.2547C61.0293 31.9454 60.7962 31.5731 60.6511 31.1641C60.506 30.755 60.4523 30.3192 60.4938 29.8871H60.5063Z" fill="#687BFC"/>
<path d="M36.1876 69.4897C37.3108 69.4897 38.2214 68.5791 38.2214 67.4559C38.2214 66.3327 37.3108 65.4221 36.1876 65.4221C35.0644 65.4221 34.1538 66.3327 34.1538 67.4559C34.1538 68.5791 35.0644 69.4897 36.1876 69.4897Z" fill="white"/>
<path d="M36.1892 70.1259C35.6611 70.1259 35.1448 69.9693 34.7057 69.6759C34.2666 69.3825 33.9244 68.9655 33.7223 68.4776C33.5202 67.9897 33.4673 67.4528 33.5703 66.9349C33.6734 66.4169 33.9277 65.9411 34.3011 65.5677C34.6745 65.1943 35.1503 64.94 35.6682 64.837C36.1862 64.7339 36.7231 64.7868 37.211 64.9889C37.6989 65.191 38.1159 65.5332 38.4093 65.9723C38.7027 66.4114 38.8593 66.9277 38.8593 67.4558C38.8593 68.1639 38.578 68.8431 38.0772 69.3438C37.5765 69.8446 36.8973 70.1259 36.1892 70.1259ZM36.1892 66.0459C35.9073 66.0459 35.6318 66.1296 35.3976 66.2865C35.1635 66.4433 34.9812 66.6662 34.8739 66.9268C34.7666 67.1875 34.7392 67.4741 34.7951 67.7504C34.851 68.0266 34.9877 68.28 35.1879 68.4785C35.388 68.6769 35.6426 68.8114 35.9194 68.8648C36.1961 68.9183 36.4825 68.8883 36.7422 68.7788C37.0019 68.6692 37.2232 68.4849 37.3779 68.2494C37.5327 68.0138 37.614 67.7376 37.6116 67.4558C37.6083 67.0807 37.457 66.7221 37.1906 66.458C36.9242 66.194 36.5643 66.0458 36.1892 66.0459Z" fill="#687BFC"/>
<path d="M32.3071 59.7324C32.5738 60.133 32.7523 60.5858 32.8306 61.0606C32.909 61.5355 32.8854 62.0216 32.7616 62.4866C32.6377 62.9517 32.4163 63.3851 32.1122 63.758C31.808 64.131 31.428 64.435 30.9974 64.6499C30.5667 64.8648 30.0953 64.9856 29.6144 65.0043C29.1335 65.0231 28.6541 64.9394 28.208 64.7587C27.7619 64.578 27.3594 64.3045 27.0271 63.9564C26.6948 63.6082 26.4404 63.1934 26.2806 62.7394C21.4922 64.1857 16.3352 63.7817 11.8304 61.6073C7.3256 59.4329 3.80122 55.6466 1.95479 50.9977C0.108352 46.3488 0.0744215 41.1762 1.85971 36.5035C3.64499 31.8308 7.1194 27.9986 11.5953 25.7653C16.0712 23.532 21.2224 23.0603 26.0294 24.4437C30.8365 25.827 34.949 28.9646 37.5532 33.2354C40.1574 37.5061 41.0633 42.5989 40.0919 47.5058C39.1204 52.4127 36.3422 56.7761 32.3071 59.7324Z" fill="white"/>
<path d="M29.4753 65.6091C28.7488 65.6054 28.0366 65.4066 27.4133 65.0334C26.7899 64.6603 26.2782 64.1265 25.9317 63.488C24.1619 63.9652 22.3372 64.2085 20.5041 64.2117C15.6429 64.2038 10.9421 62.4718 7.23788 59.3237C3.53364 56.1757 1.06615 51.8158 0.274326 47.0195C-0.5175 42.2232 0.417672 37.3015 2.91351 33.1299C5.40935 28.9583 9.30402 25.8072 13.9047 24.2373C18.5055 22.6673 23.5139 22.7802 28.0392 24.5558C32.5646 26.3315 36.3133 29.6548 38.6187 33.9346C40.924 38.2144 41.6365 43.1732 40.6294 47.929C39.6223 52.6847 36.9609 56.9291 33.1186 59.907C33.3617 60.4355 33.4893 61.0097 33.4929 61.5914C33.4896 62.656 33.0653 63.676 32.3125 64.4287C31.5598 65.1815 30.5398 65.6058 29.4753 65.6091ZM26.6928 61.9658L26.8925 62.5272C27.0328 62.8875 27.247 63.2145 27.5214 63.487C27.7957 63.7596 28.124 63.9716 28.4853 64.1096C28.8465 64.2476 29.2326 64.3084 29.6188 64.2881C30.0049 64.2679 30.3826 64.167 30.7274 63.9919C31.0722 63.8169 31.3765 63.5716 31.6208 63.2719C31.8651 62.9721 32.0439 62.6245 32.1457 62.2515C32.2476 61.8785 32.2702 61.4882 32.2121 61.1059C32.154 60.7236 32.0165 60.3577 31.8085 60.0318L31.4841 59.5452L31.9582 59.1958C35.8758 56.3324 38.5756 52.1025 39.5232 47.3434C40.4708 42.5844 39.597 37.6429 37.075 33.4974C34.5529 29.3518 30.5663 26.3041 25.9044 24.9577C21.2424 23.6113 16.2448 24.0643 11.9009 26.227C7.55698 28.3897 4.18333 32.1044 2.44775 36.6359C0.712161 41.1674 0.741153 46.1854 2.52897 50.6965C4.31678 55.2077 7.73311 58.8832 12.1017 60.9956C16.4703 63.1079 21.4728 63.5032 26.1189 62.103L26.6928 61.9658Z" fill="#687BFC"/>
<path d="M22.5877 40.2555C22.7 39.0077 21.6145 38.2716 20.0299 38.2716C19.2191 38.2735 18.4217 38.4789 17.711 38.8692C17.0003 39.2594 16.399 39.8219 15.9623 40.505L11.5703 38.0096C13.4544 35.2521 16.5612 33.4304 21.1653 33.4304C25.9441 33.4304 29.1632 35.4642 28.8388 39.2448C28.4145 44.086 23.2739 44.7972 23.0244 47.642H17.5095C17.8588 43.5993 22.3881 42.5762 22.5877 40.2555ZM16.3491 52.5829C16.4467 51.6731 16.889 50.8351 17.5851 50.2411C18.2812 49.6471 19.1783 49.3421 20.0922 49.3888C20.5252 49.3427 20.963 49.3932 21.3741 49.5367C21.7852 49.6802 22.1594 49.9131 22.4697 50.2186C22.78 50.5241 23.0186 50.8946 23.1685 51.3035C23.3183 51.7123 23.3757 52.1493 23.3363 52.5829C23.2299 53.5047 22.7781 54.3519 22.072 54.9539C21.3658 55.5558 20.4578 55.8678 19.5308 55.827C19.0981 55.8618 18.6631 55.8014 18.2564 55.6499C17.8497 55.4985 17.481 55.2597 17.1765 54.9505C16.872 54.6412 16.639 54.2689 16.4939 53.8599C16.3488 53.4508 16.2951 53.015 16.3366 52.5829H16.3491Z" fill="#687BFC"/>
</svg>
