<svg width="40" height="40" viewBox="0 0 40 40" fill="none" xmlns="http://www.w3.org/2000/svg">
<rect width="40" height="40" rx="20" fill="#F3F5F8"/>
<path d="M27.7643 15.9513L27.3529 15.2375C27.0418 14.6976 26.8863 14.4277 26.6217 14.3201C26.357 14.2124 26.0577 14.2974 25.4591 14.4672L24.4423 14.7536C24.0601 14.8418 23.6591 14.7918 23.3102 14.6125L23.0294 14.4505C22.7302 14.2589 22.5 13.9763 22.3726 13.6441L22.0943 12.813C21.9113 12.2629 21.8198 11.9879 21.602 11.8306C21.3843 11.6733 21.0949 11.6733 20.5163 11.6733H19.5873C19.0087 11.6733 18.7193 11.6733 18.5015 11.8306C18.2837 11.9879 18.1922 12.2629 18.0092 12.813L17.7309 13.6441C17.6035 13.9763 17.3734 14.2589 17.0741 14.4505L16.7934 14.6125C16.4445 14.7918 16.0435 14.8418 15.6613 14.7536L14.6445 14.4672C14.0458 14.2974 13.7465 14.2124 13.4819 14.3201C13.2172 14.4277 13.0617 14.6976 12.7506 15.2375L12.3393 15.9513C12.0477 16.4574 11.9019 16.7104 11.9302 16.9797C11.9585 17.2491 12.1537 17.4661 12.5441 17.9003L13.4033 18.8608C13.6133 19.1267 13.7623 19.59 13.7623 20.0066C13.7623 20.4233 13.6133 20.8865 13.4033 21.1524L12.5441 22.113C12.1537 22.5472 11.9585 22.7642 11.9302 23.0336C11.9019 23.3029 12.0477 23.5559 12.3393 24.0619L12.7506 24.7757C13.0617 25.3156 13.2172 25.5856 13.4819 25.6932C13.7465 25.8008 14.0459 25.7159 14.6445 25.546L15.6613 25.2596C16.0435 25.1714 16.4446 25.2215 16.7936 25.4008L17.0743 25.5628C17.3734 25.7545 17.6035 26.037 17.7309 26.3692L18.0092 27.2004C18.1922 27.7504 18.2837 28.0254 18.5015 28.1827C18.7193 28.34 19.0087 28.34 19.5873 28.34H20.5163C21.0949 28.34 21.3843 28.34 21.602 28.1827C21.8198 28.0254 21.9113 27.7504 22.0943 27.2004L22.3727 26.3692C22.5 26.037 22.7301 25.7545 23.0293 25.5628L23.31 25.4008C23.659 25.2215 24.06 25.1714 24.4423 25.2596L25.4591 25.546C26.0577 25.7159 26.357 25.8008 26.6217 25.6932C26.8863 25.5856 27.0418 25.3156 27.3529 24.7757L27.7643 24.0619C28.0558 23.5559 28.2016 23.3029 28.1733 23.0336C28.145 22.7642 27.9498 22.5472 27.5595 22.113L26.7003 21.1524C26.4903 20.8865 26.3412 20.4233 26.3412 20.0066C26.3412 19.59 26.4903 19.1267 26.7003 18.8608L27.5595 17.9003C27.9498 17.4661 28.145 17.2491 28.1733 16.9797C28.2016 16.7104 28.0558 16.4574 27.7643 15.9513Z" stroke="#030F29" stroke-width="1.5" stroke-linecap="round"/>
<path d="M22.9329 20.0002C22.9329 21.611 21.6271 22.9168 20.0163 22.9168C18.4054 22.9168 17.0996 21.611 17.0996 20.0002C17.0996 18.3893 18.4054 17.0835 20.0163 17.0835C21.6271 17.0835 22.9329 18.3893 22.9329 20.0002Z" stroke="#030F29" stroke-width="1.5"/>
</svg>
