<svg width="40" height="40" viewBox="0 0 40 40" fill="none" xmlns="http://www.w3.org/2000/svg">
<rect width="40" height="40" rx="20" fill="#F3F5F8"/>
<g clip-path="url(#clip0_928_43199)">
<path d="M21.8852 12.9998C20.9967 12.1113 20.5524 11.667 20.0003 11.667C19.4482 11.667 19.004 12.1113 18.1155 12.9998C17.5823 13.533 17.0539 13.7805 16.2937 13.7805C15.63 13.7805 14.6857 13.6518 14.167 14.1749C13.6524 14.6938 13.7806 15.6342 13.7806 16.2937C13.7806 17.0539 13.533 17.5823 12.9998 18.1155C12.1113 19.004 11.667 19.4482 11.667 20.0003C11.667 20.5523 12.1113 20.9967 12.9998 21.8852C13.5971 22.4825 13.7806 22.8682 13.7806 23.7069C13.7806 24.3707 13.6518 25.315 14.1749 25.8337C14.6938 26.3482 15.6342 26.2201 16.2937 26.2201C17.1032 26.2201 17.4931 26.3784 18.0708 26.9562C18.5627 27.4482 19.2222 28.3337 20.0003 28.3337C20.7784 28.3337 21.4379 27.4482 21.9298 26.9562C22.5076 26.3784 22.8974 26.2201 23.7069 26.2201C24.3664 26.2201 25.3068 26.3482 25.8257 25.8337M25.8257 25.8337C26.3488 25.315 26.2201 24.3707 26.2201 23.7069C26.2201 22.8682 26.4035 22.4825 27.0008 21.8852C27.8894 20.9967 28.3337 20.5523 28.3337 20.0003C28.3337 19.4482 27.8894 19.004 27.0008 18.1155M25.8257 25.8337H25.8337" stroke="#030F29" stroke-width="1.5" stroke-linecap="round" stroke-linejoin="round"/>
<path d="M16.667 18.5901C16.667 18.5901 18.542 18.3337 20.0003 21.667C20.0003 21.667 24.216 13.3337 28.3337 11.667" stroke="#030F29" stroke-width="1.5" stroke-linecap="round" stroke-linejoin="round"/>
</g>
<defs>
<clipPath id="clip0_928_43199">
<rect width="20" height="20" fill="white" transform="translate(10 10)"/>
</clipPath>
</defs>
</svg>
