<svg width="40" height="40" viewBox="0 0 40 40" fill="none" xmlns="http://www.w3.org/2000/svg">
<rect width="40" height="40" rx="20" fill="#F3F5F8"/>
<path d="M15.8333 15.4168H23.9583C25.7139 15.4168 26.5916 15.4168 27.2222 15.8382C27.4952 16.0206 27.7295 16.2549 27.912 16.5279C28.3333 17.1585 28.3333 18.2446 28.3333 20.0002M20 15.4168L19.4721 14.3611C19.0348 13.4865 18.6351 12.6061 17.666 12.2427C17.2415 12.0835 16.7566 12.0835 15.7869 12.0835C14.2731 12.0835 13.5163 12.0835 12.9483 12.4004C12.5435 12.6263 12.2095 12.9604 11.9836 13.3652C11.6666 13.9331 11.6666 14.69 11.6666 16.2037V18.7502C11.6666 22.2325 11.6666 24.1713 12.5167 25.4168" stroke="#030F29" stroke-width="1.5" stroke-linecap="round"/>
<path d="M15.5475 22.9744L17.2662 22.9283C18.181 22.9038 18.6385 22.8915 18.915 23.1681C19.1916 23.4447 19.1794 23.9021 19.1549 24.8169L19.1088 26.5356M18.8632 23.2199L14.1666 27.9165" stroke="#030F29" stroke-width="1.5" stroke-linecap="round" stroke-linejoin="round"/>
<path d="M28.3333 22.9165H22.5M28.3333 25.4165H22.5M25.4167 27.9165H22.5" stroke="#030F29" stroke-width="1.5" stroke-linecap="round"/>
</svg>
