<svg width="40" height="40" viewBox="0 0 40 40" fill="none" xmlns="http://www.w3.org/2000/svg">
<rect width="40" height="40" rx="20" fill="#F3F5F8"/>
<path d="M19.9982 11.6665C17.4917 11.6665 15.8665 13.349 13.9444 13.9623C13.1629 14.2116 12.7722 14.3363 12.614 14.512C12.4559 14.6878 12.4096 14.9446 12.3169 15.4583C11.3259 20.9548 13.4921 26.0365 18.6583 28.0144C19.2133 28.2269 19.4908 28.3332 20.0009 28.3332C20.5109 28.3332 20.7885 28.2269 21.3435 28.0144C26.5093 26.0364 28.6735 20.9548 27.6822 15.4583C27.5895 14.9445 27.5432 14.6877 27.385 14.5119C27.2268 14.3362 26.8361 14.2115 26.0546 13.9623C24.1318 13.3491 22.5048 11.6665 19.9982 11.6665Z" stroke="#030F29" stroke-width="1.5" stroke-linecap="round" stroke-linejoin="round"/>
<path d="M17.5 20.8333C17.5 20.8333 18.3333 20.8333 19.1667 22.5C19.1667 22.5 21.8138 18.3333 24.1667 17.5" stroke="#030F29" stroke-width="1.5" stroke-linecap="round" stroke-linejoin="round"/>
</svg>
