<svg width="75" height="40" viewBox="0 0 75 40" fill="none" xmlns="http://www.w3.org/2000/svg">
<g clip-path="url(#clip0_1850_35494)">
<path d="M34.5211 29.664H28.7932L32.3724 10.3462H38.1004L34.5211 29.664Z" fill="white"/>
<path d="M23.9721 10.3462L18.5091 23.633L17.8615 20.77L15.9365 12.0671C15.9365 12.0671 15.701 10.3462 13.2168 10.3462H4.18629L4.08032 10.6718C6.19425 11.1378 8.21502 11.8836 10.0732 12.8837L15.0535 29.664H21.0228L30.1356 10.3462H23.9721Z" fill="white"/>
<path d="M69.036 29.664H74.2989L69.713 10.3461H65.1036C64.5456 10.3085 63.9885 10.428 63.5131 10.6873C63.0378 10.9466 62.669 11.3322 62.4603 11.788L53.9126 29.664H59.8878L61.0652 26.7958H68.3649L69.036 29.664ZM62.7311 22.8319L65.7452 15.5968L67.4348 22.8319H62.7311Z" fill="white"/>
<path d="M54.3606 14.9922L55.1789 10.8579C53.525 10.3325 51.786 10.0429 50.0279 10C47.1845 10 40.4323 11.0904 40.4323 16.3979C40.4323 21.3902 48.356 21.4522 48.356 24.0724C48.356 26.6925 41.2506 26.2222 38.9017 24.5891L38.0481 28.9044C40.0967 29.6599 42.3019 30.033 44.5237 30C48.4325 30 54.3312 28.2222 54.3312 23.385C54.3312 18.3618 46.3368 17.8915 46.3368 15.7106C46.3368 13.5297 51.9117 13.8036 54.3606 14.9922Z" fill="white"/>
<path d="M17.8615 20.7751L15.9365 12.0671C15.9365 12.0671 15.701 10.3462 13.2168 10.3462H4.18629L4.08032 10.6718C7.19031 11.3678 10.0921 12.646 12.5869 14.4185C14.955 16.0902 16.7752 18.2838 17.8615 20.7751Z" fill="white"/>
</g>
<defs>
<clipPath id="clip0_1850_35494">
<rect width="73.672" height="40" fill="white" transform="translate(0.626953)"/>
</clipPath>
</defs>
</svg>
