<svg width="235" height="208" viewBox="0 0 235 208" fill="none" xmlns="http://www.w3.org/2000/svg">
<g filter="url(#filter0_b_928_22687)">
<rect x="1" y="1" width="233" height="206" rx="20.1732" fill="white" fill-opacity="0.44"/>
<rect x="0.507784" y="0.507784" width="233.984" height="206.984" rx="20.6654" stroke="white" stroke-opacity="0.77" stroke-width="0.984432"/>
</g>
<g filter="url(#filter1_b_928_22687)">
<path d="M87.7548 69.6758H22.9871C21.3302 69.6758 19.9871 71.0189 19.9871 72.6758V168.061C19.9871 169.718 21.3302 171.061 22.9871 171.061H87.7548C89.4116 171.061 90.7548 169.718 90.7548 168.061V72.6758C90.7548 71.0189 89.4116 69.6758 87.7548 69.6758Z" fill="white" fill-opacity="0.31"/>
</g>
<g filter="url(#filter2_b_928_22687)">
<path d="M212.03 69.6758H104.111C102.454 69.6758 101.111 71.0189 101.111 72.6758V168.061C101.111 169.718 102.454 171.061 104.111 171.061H212.03C213.687 171.061 215.03 169.718 215.03 168.061V72.6758C215.03 71.0189 213.687 69.6758 212.03 69.6758Z" fill="white" fill-opacity="0.31"/>
</g>
<g filter="url(#filter3_b_928_22687)">
<path d="M212.03 18.9844H22.9871C21.3302 18.9844 19.9871 20.3275 19.9871 21.9844V51.0791C19.9871 52.7359 21.3302 54.0791 22.9871 54.0791H212.03C213.687 54.0791 215.03 52.7359 215.03 51.0791V21.9844C215.03 20.3275 213.687 18.9844 212.03 18.9844Z" fill="white" fill-opacity="0.31"/>
</g>
<circle cx="94" cy="171" r="24" fill="url(#paint0_radial_928_22687)"/>
<circle cx="94" cy="171" r="24" fill="url(#paint1_radial_928_22687)"/>
<circle cx="94" cy="171" r="24" fill="url(#paint2_radial_928_22687)"/>
<circle cx="94" cy="171" r="24" fill="url(#paint3_radial_928_22687)"/>
<path d="M102.572 164.495C100.508 162.396 84.9872 167.537 85 169.414C85.0145 171.543 91.0613 172.197 92.7374 172.641C93.7452 172.908 94.0152 173.182 94.2476 174.18C95.3001 178.701 95.8285 180.949 97.0329 181C98.9526 181.08 104.585 166.543 102.572 164.495Z" fill="white"/>
<defs>
<filter id="filter0_b_928_22687" x="-32.4707" y="-32.4707" width="299.941" height="272.941" filterUnits="userSpaceOnUse" color-interpolation-filters="sRGB">
<feFlood flood-opacity="0" result="BackgroundImageFix"/>
<feGaussianBlur in="BackgroundImageFix" stdDeviation="16.2431"/>
<feComposite in2="SourceAlpha" operator="in" result="effect1_backgroundBlur_928_22687"/>
<feBlend mode="normal" in="SourceGraphic" in2="effect1_backgroundBlur_928_22687" result="shape"/>
</filter>
<filter id="filter1_b_928_22687" x="-5.01294" y="44.6758" width="120.768" height="151.385" filterUnits="userSpaceOnUse" color-interpolation-filters="sRGB">
<feFlood flood-opacity="0" result="BackgroundImageFix"/>
<feGaussianBlur in="BackgroundImageFix" stdDeviation="12.5"/>
<feComposite in2="SourceAlpha" operator="in" result="effect1_backgroundBlur_928_22687"/>
<feBlend mode="normal" in="SourceGraphic" in2="effect1_backgroundBlur_928_22687" result="shape"/>
</filter>
<filter id="filter2_b_928_22687" x="76.111" y="44.6758" width="163.919" height="151.385" filterUnits="userSpaceOnUse" color-interpolation-filters="sRGB">
<feFlood flood-opacity="0" result="BackgroundImageFix"/>
<feGaussianBlur in="BackgroundImageFix" stdDeviation="12.5"/>
<feComposite in2="SourceAlpha" operator="in" result="effect1_backgroundBlur_928_22687"/>
<feBlend mode="normal" in="SourceGraphic" in2="effect1_backgroundBlur_928_22687" result="shape"/>
</filter>
<filter id="filter3_b_928_22687" x="-5.01294" y="-6.01562" width="245.043" height="85.0947" filterUnits="userSpaceOnUse" color-interpolation-filters="sRGB">
<feFlood flood-opacity="0" result="BackgroundImageFix"/>
<feGaussianBlur in="BackgroundImageFix" stdDeviation="12.5"/>
<feComposite in2="SourceAlpha" operator="in" result="effect1_backgroundBlur_928_22687"/>
<feBlend mode="normal" in="SourceGraphic" in2="effect1_backgroundBlur_928_22687" result="shape"/>
</filter>
<radialGradient id="paint0_radial_928_22687" cx="0" cy="0" r="1" gradientUnits="userSpaceOnUse" gradientTransform="translate(85.2471 151.518) rotate(75.8721) scale(42.8005)">
<stop stop-color="#0E4DC5"/>
<stop offset="1" stop-color="#FDF9FF"/>
</radialGradient>
<radialGradient id="paint1_radial_928_22687" cx="0" cy="0" r="1" gradientUnits="userSpaceOnUse" gradientTransform="translate(114.894 178.624) rotate(153.06) scale(38.6401)">
<stop stop-color="#FF2400"/>
<stop offset="1" stop-color="white" stop-opacity="0"/>
</radialGradient>
<radialGradient id="paint2_radial_928_22687" cx="0" cy="0" r="1" gradientUnits="userSpaceOnUse" gradientTransform="translate(76.7765 150.953) rotate(85.3549) scale(45.3253)">
<stop stop-color="#0066FF"/>
<stop offset="1" stop-color="#DDDDDD" stop-opacity="0"/>
</radialGradient>
<radialGradient id="paint3_radial_928_22687" cx="0" cy="0" r="1" gradientUnits="userSpaceOnUse" gradientTransform="translate(111.506 154.624) rotate(92.2906) scale(35.3223)">
<stop stop-color="#3300FF"/>
<stop offset="1" stop-color="#930DFD" stop-opacity="0"/>
</radialGradient>
</defs>
</svg>
